<?xml version="1.0" encoding="UTF-8"?>
<svg version="1.1" xmlns="http://www.w3.org/2000/svg" width="48" height="48">
<path d="M0 0 C0.81855469 0.00386719 1.63710937 0.00773438 2.48046875 0.01171875 C3.67349609 0.00591797 3.67349609 0.00591797 4.890625 0 C8.45426747 0.00585163 11.81698823 0.1311724 15.3515625 0.640625 C19.6940611 1.25544922 23.9151665 1.24507808 28.29296875 1.19921875 C29.53336914 1.19245117 29.53336914 1.19245117 30.79882812 1.18554688 C32.81774021 1.17387686 34.83661449 1.15594593 36.85546875 1.13671875 C36.88433412 5.44920484 36.9022213 9.76166637 36.91796875 14.07421875 C36.92634766 15.30591797 36.93472656 16.53761719 36.94335938 17.80664062 C36.94658203 18.97646484 36.94980469 20.14628906 36.953125 21.3515625 C36.95836182 22.4355835 36.96359863 23.51960449 36.96899414 24.63647461 C36.85546875 27.13671875 36.85546875 27.13671875 35.85546875 28.13671875 C32.97075222 28.23783253 30.11503744 28.27534663 27.23046875 28.26171875 C26.03744141 28.26751953 26.03744141 28.26751953 24.8203125 28.2734375 C21.25667003 28.26758587 17.89394927 28.1422651 14.359375 27.6328125 C10.0168764 27.01798828 5.795771 27.02835942 1.41796875 27.07421875 C0.17756836 27.08098633 0.17756836 27.08098633 -1.08789062 27.08789062 C-3.10680271 27.09956064 -5.12567699 27.11749157 -7.14453125 27.13671875 C-7.17339662 22.82423266 -7.1912838 18.51177113 -7.20703125 14.19921875 C-7.21541016 12.96751953 -7.22378906 11.73582031 -7.23242188 10.46679688 C-7.23564453 9.29697266 -7.23886719 8.12714844 -7.2421875 6.921875 C-7.24742432 5.837854 -7.25266113 4.75383301 -7.25805664 3.63696289 C-7.03764104 -1.21739449 -4.19413827 0.00695545 0 0 Z " fill="#167345" transform="translate(9.14453125,9.86328125)"/>
<path d="M0 0 C1.58206057 0.00667536 3.16410534 0.0186375 4.74609375 0.03515625 C5.55240234 0.03966797 6.35871094 0.04417969 7.18945312 0.04882812 C9.18753131 0.06065107 11.18557158 0.07858711 13.18359375 0.09765625 C13.18359375 2.40765625 13.18359375 4.71765625 13.18359375 7.09765625 C17.83859349 7.9122812 22.49335921 8.53159346 27.18359375 9.09765625 C27.18359375 11.07765625 27.18359375 13.05765625 27.18359375 15.09765625 C24.84047245 14.84204302 22.50515972 14.50494853 20.18359375 14.09765625 C19.85359375 13.43765625 19.52359375 12.77765625 19.18359375 12.09765625 C18.19359375 12.75765625 17.20359375 13.41765625 16.18359375 14.09765625 C13.99609375 13.72265625 13.99609375 13.72265625 12.18359375 13.09765625 C12.18359375 14.74765625 12.18359375 16.39765625 12.18359375 18.09765625 C13.23160156 18.17113281 13.23160156 18.17113281 14.30078125 18.24609375 C15.21085937 18.32085938 16.1209375 18.395625 17.05859375 18.47265625 C17.96351562 18.54226562 18.8684375 18.611875 19.80078125 18.68359375 C22.18359375 19.09765625 22.18359375 19.09765625 24.18359375 21.09765625 C22.55816295 20.95670561 20.93325324 20.80973538 19.30859375 20.66015625 C18.40367188 20.57894531 17.49875 20.49773438 16.56640625 20.4140625 C14.18359375 20.09765625 14.18359375 20.09765625 12.18359375 19.09765625 C12.18359375 21.40765625 12.18359375 23.71765625 12.18359375 26.09765625 C3.76859375 26.59265625 3.76859375 26.59265625 -4.81640625 27.09765625 C-4.84322924 22.78511542 -4.86315869 18.47273918 -4.87890625 14.16015625 C-4.88728516 12.92845703 -4.89566406 11.69675781 -4.90429688 10.42773438 C-4.90751953 9.25791016 -4.91074219 8.08808594 -4.9140625 6.8828125 C-4.91929932 5.7987915 -4.92453613 4.71477051 -4.92993164 3.59790039 C-4.74569928 -0.4595697 -4.26365385 0.10910066 0 0 Z " fill="#1A7647" transform="translate(6.81640625,9.90234375)"/>
<path d="M0 0 C0 8.58 0 17.16 0 26 C-1.65 26.33 -3.3 26.66 -5 27 C-5 18.42 -5 9.84 -5 1 C-2 0 -2 0 0 0 Z " fill="#044C2A" transform="translate(46,11)"/>
<path d="M0 0 C0.99 0 1.98 0 3 0 C3 8.58 3 17.16 3 26 C1.68 26.33 0.36 26.66 -1 27 C-1.02886537 22.68751391 -1.04675255 18.37505238 -1.0625 14.0625 C-1.07087891 12.83080078 -1.07925781 11.59910156 -1.08789062 10.33007812 C-1.09111328 9.16025391 -1.09433594 7.99042969 -1.09765625 6.78515625 C-1.10289307 5.70113525 -1.10812988 4.61711426 -1.11352539 3.50024414 C-1 1 -1 1 0 0 Z " fill="#044626" transform="translate(3,10)"/>
<path d="M0 0 C1.69085991 0.06537595 3.37907507 0.20364726 5.0625 0.375 C6.04992187 0.47425781 7.03734375 0.57351562 8.0546875 0.67578125 C11.70929065 1.07807841 15.35497309 1.51858135 19 2 C19 3.98 19 5.96 19 8 C16.6568787 7.74438677 14.32156597 7.40729228 12 7 C11.67 6.34 11.34 5.68 11 5 C10.01 5.66 9.02 6.32 8 7 C5.26009592 6.96856707 2.71582146 6.44521663 0 6 C-0.38218767 4.34385343 -0.71395102 2.67542976 -1 1 C-0.67 0.67 -0.34 0.34 0 0 Z " fill="#64917B" transform="translate(15,17)"/>
<path d="M0 0 C1.79232337 0.30871122 3.58384321 0.62209064 5.375 0.9375 C6.87160156 1.19853516 6.87160156 1.19853516 8.3984375 1.46484375 C11 2 11 2 13 3 C13 4.98 13 6.96 13 9 C11.02043559 8.85966889 9.04134859 8.7125877 7.0625 8.5625 C5.96035156 8.48128906 4.85820312 8.40007813 3.72265625 8.31640625 C1 8 1 8 0 7 C-0.04092937 4.66702567 -0.04241723 2.33294775 0 0 Z " fill="#02562C" transform="translate(19,29)"/>
<path d="M0 0 C1.81332154 0.30769707 3.62564345 0.62129064 5.4375 0.9375 C6.95150391 1.19853516 6.95150391 1.19853516 8.49609375 1.46484375 C11 2 11 2 12 3 C12.25 5.4375 12.25 5.4375 12 8 C11.01 8.66 10.02 9.32 9 10 C6.73828125 9.5390625 6.73828125 9.5390625 4.3125 8.625 C3.10013672 8.18027344 3.10013672 8.18027344 1.86328125 7.7265625 C0.94095703 7.36691406 0.94095703 7.36691406 0 7 C0 4.69 0 2.38 0 0 Z " fill="#03552C" transform="translate(20,10)"/>
<path d="M0 0 C0.99 0 1.98 0 3 0 C3 8.58 3 17.16 3 26 C2.01 26 1.02 26 0 26 C0 17.42 0 8.84 0 0 Z " fill="#0D5F38" transform="translate(6,10)"/>
<path d="M0 0 C0.226875 0.639375 0.45375 1.27875 0.6875 1.9375 C1.85250896 4.27193661 1.85250896 4.27193661 4.625 4.75 C5.40875 4.8325 6.1925 4.915 7 5 C7 6.65 7 8.3 7 10 C2.71 9.34 -1.58 8.68 -6 8 C-6 6.35 -6 4.7 -6 3 C-4.35 3 -2.7 3 -1 3 C-0.67 2.01 -0.34 1.02 0 0 Z " fill="#0A5A32" transform="translate(25,20)"/>
<path d="M0 0 C3.3 0.33 6.6 0.66 10 1 C10 2.98 10 4.96 10 7 C6.6875 6.875 6.6875 6.875 3 6 C1.0625 2.9375 1.0625 2.9375 0 0 Z " fill="#618A75" transform="translate(24,18)"/>
<path d="M0 0 C0.66 0 1.32 0 2 0 C2 3.96 2 7.92 2 12 C1.34 12 0.68 12 0 12 C0 10.02 0 8.04 0 6 C-0.66 5.67 -1.32 5.34 -2 5 C-1.34 3.35 -0.68 1.7 0 0 Z " fill="#156C40" transform="translate(32,26)"/>
<path d="M0 0 C0.99 0 1.98 0 3 0 C3.66 1.32 4.32 2.64 5 4 C4.34 4 3.68 4 3 4 C3 4.66 3 5.32 3 6 C2.01 6 1.02 6 0 6 C-0.38218767 4.34385343 -0.71395102 2.67542976 -1 1 C-0.67 0.67 -0.34 0.34 0 0 Z " fill="#99C2AE" transform="translate(15,17)"/>
<path d="M0 0 C1.32 0 2.64 0 4 0 C4 1.98 4 3.96 4 6 C2.68 5.34 1.36 4.68 0 4 C0 2.68 0 1.36 0 0 Z " fill="#85AB98" transform="translate(30,19)"/>
</svg>
