<?xml version="1.0" encoding="UTF-8"?>
<svg version="1.1" xmlns="http://www.w3.org/2000/svg" width="48" height="48">
<path d="M0 0 C1.24040039 -0.00193359 1.24040039 -0.00193359 2.50585938 -0.00390625 C3.37662109 -0.00003906 4.24738281 0.00382813 5.14453125 0.0078125 C6.42166992 0.00201172 6.42166992 0.00201172 7.72460938 -0.00390625 C12.27594727 0.00313372 16.46355927 0.38291639 20.95703125 1.1328125 C24.08324012 1.25240788 27.20414409 1.22773876 30.33203125 1.1953125 C31.57919922 1.18854492 31.57919922 1.18854492 32.8515625 1.18164062 C34.88675022 1.16994414 36.92190048 1.15201185 38.95703125 1.1328125 C38.98589662 5.44529859 39.0037838 9.75776012 39.01953125 14.0703125 C39.02791016 15.30201172 39.03628906 16.53371094 39.04492188 17.80273438 C39.04814453 18.97255859 39.05136719 20.14238281 39.0546875 21.34765625 C39.05992432 22.43167725 39.06516113 23.51569824 39.07055664 24.63256836 C38.95703125 27.1328125 38.95703125 27.1328125 37.95703125 28.1328125 C36.60052173 28.23151514 35.23900044 28.26360363 33.87890625 28.265625 C33.04746094 28.26691406 32.21601562 28.26820312 31.359375 28.26953125 C30.48410156 28.26566406 29.60882813 28.26179688 28.70703125 28.2578125 C27.84722656 28.26167969 26.98742188 28.26554687 26.1015625 28.26953125 C25.26496094 28.26824219 24.42835937 28.26695313 23.56640625 28.265625 C22.42123535 28.26393311 22.42123535 28.26393311 21.25292969 28.26220703 C18.95703125 28.1328125 18.95703125 28.1328125 16.47290039 27.63061523 C13.93928816 27.12930176 11.67245341 27.01851945 9.09375 27.03515625 C8.20751953 27.03837891 7.32128906 27.04160156 6.40820312 27.04492188 C5.04018555 27.05749023 5.04018555 27.05749023 3.64453125 27.0703125 C2.24750977 27.07708008 2.24750977 27.07708008 0.82226562 27.08398438 C-1.46621248 27.09572016 -3.75455683 27.11213887 -6.04296875 27.1328125 C-5.90484953 22.82002865 -5.75618766 18.50767297 -5.60546875 14.1953125 C-5.54649414 12.34776367 -5.54649414 12.34776367 -5.48632812 10.46289062 C-5.44443359 9.29306641 -5.40253906 8.12324219 -5.359375 6.91796875 C-5.32271729 5.83394775 -5.28605957 4.74992676 -5.24829102 3.63305664 C-4.91740614 -0.39618473 -3.66653545 0.00549529 0 0 Z " fill="#BF8096" transform="translate(7.04296875,9.8671875)"/>
<path d="M0 0 C0 8.58 0 17.16 0 26 C-2.31 25.67 -4.62 25.34 -7 25 C-7.33 23.68 -7.66 22.36 -8 21 C-7.01 21 -6.02 21 -5 21 C-4.67 20.01 -4.34 19.02 -4 18 C-9.28 17.34 -14.56 16.68 -20 16 C-20 18.97 -20 21.94 -20 25 C-20.99 25 -21.98 25 -23 25 C-23 17.08 -23 9.16 -23 1 C-22.01 1 -21.02 1 -20 1 C-20 4.3 -20 7.6 -20 11 C-15.05 11 -10.1 11 -5 11 C-6.32 10.34 -7.64 9.68 -9 9 C-9.33 9.33 -9.66 9.66 -10 10 C-12.33297433 10.04092937 -14.66705225 10.04241723 -17 10 C-16.360625 9.525625 -15.72125 9.05125 -15.0625 8.5625 C-13.11706694 7.16261274 -13.11706694 7.16261274 -12 6 C-13.98 6.66 -15.96 7.32 -18 8 C-18 5.69 -18 3.38 -18 1 C-15.37504621 0.83257698 -12.75004205 0.6660283 -10.125 0.5 C-9.00544922 0.42845703 -9.00544922 0.42845703 -7.86328125 0.35546875 C-2.2265625 0 -2.2265625 0 0 0 Z " fill="#BB3750" transform="translate(46,11)"/>
<path d="M0 0 C1.98 0 3.96 0 6 0 C6 2.64 6 5.28 6 8 C6.55429687 7.69964844 7.10859375 7.39929688 7.6796875 7.08984375 C8.40414063 6.70957031 9.12859375 6.32929688 9.875 5.9375 C10.59429687 5.55464844 11.31359375 5.17179687 12.0546875 4.77734375 C13.01761719 4.39255859 13.01761719 4.39255859 14 4 C14.66 4.33 15.32 4.66 16 5 C13.69 6.32 11.38 7.64 9 9 C9.763125 9 10.52625 9 11.3125 9 C15.05326069 9 18.34046415 9.20874901 22 10 C18.64119635 12.23920243 17.48423396 12.24603334 13.5625 12.1875 C12.14130859 12.17783203 12.14130859 12.17783203 10.69140625 12.16796875 C8 12 8 12 4 11 C4 7.7 4 4.4 4 1 C3.01 1 2.02 1 1 1 C1 8.92 1 16.84 1 25 C1.99 25 2.98 25 4 25 C4 22.03 4 19.06 4 16 C9.61 16.33 15.22 16.66 21 17 C21 18.32 21 19.64 21 21 C21.66 21.66 22.32 22.32 23 23 C18.25 22.125 18.25 22.125 16 21 C16.33 21.99 16.66 22.98 17 24 C20.00847418 25.22520264 20.00847418 25.22520264 23 26 C23 26.33 23 26.66 23 27 C19.9166866 27.02911321 16.83340875 27.04683682 13.75 27.0625 C12.87730469 27.07087891 12.00460938 27.07925781 11.10546875 27.08789062 C10.26113281 27.09111328 9.41679687 27.09433594 8.546875 27.09765625 C7.38430176 27.10551147 7.38430176 27.10551147 6.19824219 27.11352539 C4 27 4 27 0 26 C0 22.37 0 18.74 0 15 C-4.95 14.67 -9.9 14.34 -15 14 C-15 12.68 -15 11.36 -15 10 C-10.05 10 -5.1 10 0 10 C0 6.7 0 3.4 0 0 Z " fill="#B41D39" transform="translate(22,11)"/>
<path d="M0 0 C0 5.28 0 10.56 0 16 C-1.32 16 -2.64 16 -4 16 C-3.67 14.35 -3.34 12.7 -3 11 C-6.47147842 10.25042843 -6.47147842 10.25042843 -10 10 C-12.33333333 10 -14.66666667 10 -17 10 C-16.360625 9.525625 -15.72125 9.05125 -15.0625 8.5625 C-13.11706694 7.16261274 -13.11706694 7.16261274 -12 6 C-13.98 6.66 -15.96 7.32 -18 8 C-18 5.69 -18 3.38 -18 1 C-15.37504621 0.83257698 -12.75004205 0.6660283 -10.125 0.5 C-9.00544922 0.42845703 -9.00544922 0.42845703 -7.86328125 0.35546875 C-2.2265625 0 -2.2265625 0 0 0 Z " fill="#1D2F5B" transform="translate(46,11)"/>
<path d="M0 0 C5.61 0.33 11.22 0.66 17 1 C17 2.32 17 3.64 17 5 C17.66 5.66 18.32 6.32 19 7 C14.25 6.125 14.25 6.125 12 5 C12.33 5.99 12.66 6.98 13 8 C16.00847418 9.22520264 16.00847418 9.22520264 19 10 C19 10.33 19 10.66 19 11 C12.73 11 6.46 11 0 11 C0 7.37 0 3.74 0 0 Z " fill="#AE6E86" transform="translate(26,27)"/>
<path d="M0 0 C0.87140625 0.00257812 1.7428125 0.00515625 2.640625 0.0078125 C3.50171875 0.00523438 4.3628125 0.00265625 5.25 0 C7.890625 0.1328125 7.890625 0.1328125 12.890625 1.1328125 C12.890625 4.7628125 12.890625 8.3928125 12.890625 12.1328125 C7.610625 11.8028125 2.330625 11.4728125 -3.109375 11.1328125 C-2.449375 9.4828125 -1.789375 7.8328125 -1.109375 6.1328125 C-1.769375 5.8028125 -2.429375 5.4728125 -3.109375 5.1328125 C-2.119375 4.4728125 -1.129375 3.8128125 -0.109375 3.1328125 C-1.099375 2.4728125 -2.089375 1.8128125 -3.109375 1.1328125 C-2.109375 0.1328125 -2.109375 0.1328125 0 0 Z " fill="#D6C9D5" transform="translate(9.109375,24.8671875)"/>
<path d="M0 0 C1.65 0 3.3 0 5 0 C4.938125 0.78375 4.87625 1.5675 4.8125 2.375 C4.874375 3.24125 4.93625 4.1075 5 5 C5.99 5.66 6.98 6.32 8 7 C7.34 7.66 6.68 8.32 6 9 C6.33 9.99 6.66 10.98 7 12 C2.375 16 2.375 16 -1 16 C-0.67 10.72 -0.34 5.44 0 0 Z " fill="#633452" transform="translate(2,21)"/>
<path d="M0 0 C0.99 0 1.98 0 3 0 C3 3.3 3 6.6 3 10 C3.66 10 4.32 10 5 10 C5 11.65 5 13.3 5 15 C4.34 15 3.68 15 3 15 C3 17.97 3 20.94 3 24 C2.01 24 1.02 24 0 24 C0 16.08 0 8.16 0 0 Z " fill="#9B0F2B" transform="translate(23,12)"/>
<path d="M0 0 C0.66 0 1.32 0 2 0 C2 2.64 2 5.28 2 8 C2.55429687 7.69964844 3.10859375 7.39929688 3.6796875 7.08984375 C4.40414063 6.70957031 5.12859375 6.32929688 5.875 5.9375 C6.59429687 5.55464844 7.31359375 5.17179687 8.0546875 4.77734375 C9.01761719 4.39255859 9.01761719 4.39255859 10 4 C10.66 4.33 11.32 4.66 12 5 C9.69 6.32 7.38 7.64 5 9 C5.763125 9 6.52625 9 7.3125 9 C11.05326069 9 14.34046415 9.20874901 18 10 C14.64119635 12.23920243 13.48423396 12.24603334 9.5625 12.1875 C8.61503906 12.18105469 7.66757812 12.17460937 6.69140625 12.16796875 C4 12 4 12 0 11 C0 7.37 0 3.74 0 0 Z " fill="#AD9DAC" transform="translate(26,11)"/>
<path d="M0 0 C2.94887797 0.50842724 5.37371875 1.59306362 8 3 C7.67 4.65 7.34 6.3 7 8 C4.36 8.66 1.72 9.32 -1 10 C-1.02689216 8.52093108 -1.04634621 7.04172517 -1.0625 5.5625 C-1.07410156 4.73878906 -1.08570312 3.91507813 -1.09765625 3.06640625 C-1 1 -1 1 0 0 Z " fill="#944666" transform="translate(3,10)"/>
<path d="M0 0 C4.29 0 8.58 0 13 0 C4.25 7 4.25 7 0 7 C0 4.69 0 2.38 0 0 Z " fill="#243E7A" transform="translate(28,12)"/>
<path d="M0 0 C0 2.31 0 4.62 0 7 C-3.96 7 -7.92 7 -12 7 C-5 0 -5 0 0 0 Z " fill="#2D4885" transform="translate(20,29)"/>
<path d="M0 0 C2.00256574 1.14134327 4.00199797 2.28818633 6 3.4375 C7.11375 4.07558594 8.2275 4.71367188 9.375 5.37109375 C10.24125 5.90863281 11.1075 6.44617187 12 7 C12 7.33 12 7.66 12 8 C8.04 8 4.08 8 0 8 C0 5.36 0 2.72 0 0 Z " fill="#28427D" transform="translate(28,30)"/>
<path d="M0 0 C3.96 0 7.92 0 12 0 C12 2.64 12 5.28 12 8 C9.99743426 6.85865673 7.99800203 5.71181367 6 4.5625 C4.88625 3.92441406 3.7725 3.28632813 2.625 2.62890625 C1.75875 2.09136719 0.8925 1.55382812 0 1 C0 0.67 0 0.34 0 0 Z " fill="#304A87" transform="translate(8,10)"/>
<path d="M0 0 C-1.21395953 3.64187858 -2.09006077 3.91745993 -5.375 5.6875 C-6.56222656 6.34298828 -6.56222656 6.34298828 -7.7734375 7.01171875 C-10 8 -10 8 -13 8 C-12.34 6.68 -11.68 5.36 -11 4 C-11.66 3.67 -12.32 3.34 -13 3 C-8.44573816 0.33409063 -5.26053037 -0.31563182 0 0 Z " fill="#BB89A1" transform="translate(19,27)"/>
<path d="M0 0 C5.61 0.33 11.22 0.66 17 1 C11.95585048 4.36276635 8.96798004 4.03291962 3 3 C2.67 5.64 2.34 8.28 2 11 C1.34 11 0.68 11 0 11 C0 7.37 0 3.74 0 0 Z " fill="#A99FAE" transform="translate(26,27)"/>
<path d="M0 0 C3.63 0 7.26 0 11 0 C11 1.32 11 2.64 11 4 C11.99 4.33 12.98 4.66 14 5 C7.07 4.505 7.07 4.505 0 4 C0 2.68 0 1.36 0 0 Z " fill="#C73955" transform="translate(7,21)"/>
<path d="M0 0 C0.66 0.33 1.32 0.66 2 1 C2 4 2 4 0 7 C-4.01025005 9.17699288 -7.49793215 9.17655168 -12 9 C-10.05210271 7.46950927 -8.24876109 6.11660676 -6 5.0625 C-3.53361499 3.75223297 -1.89553636 2.03093182 0 0 Z " fill="#C93650" transform="translate(41,12)"/>
<path d="M0 0 C0 2.97 0 5.94 0 9 C-2.31 8.67 -4.62 8.34 -7 8 C-7.33 6.68 -7.66 5.36 -8 4 C-7.01 4 -6.02 4 -5 4 C-4.67 3.01 -4.34 2.02 -4 1 C-1 0 -1 0 0 0 Z " fill="#992039" transform="translate(46,28)"/>
<path d="M0 0 C0.66 0 1.32 0 2 0 C2 3.63 2 7.26 2 11 C-2.29 10.67 -6.58 10.34 -11 10 C-7.3558226 7.5705484 -5.28758728 7.83820425 -1 8 C-0.67 5.36 -0.34 2.72 0 0 Z " fill="#D8CED9" transform="translate(20,10)"/>
<path d="M0 0 C2.31 0.66 4.62 1.32 7 2 C3.63000798 4.24666134 2.43894538 4.2457371 -1.5 4.1875 C-2.93859375 4.17783203 -2.93859375 4.17783203 -4.40625 4.16796875 C-7 4 -7 4 -10 3 C-9.67 2.34 -9.34 1.68 -9 1 C-7.700625 1.020625 -6.40125 1.04125 -5.0625 1.0625 C-3.70834367 1.08399454 -2.35243917 1.07148199 -1 1 C-0.67 0.67 -0.34 0.34 0 0 Z " fill="#DACBD3" transform="translate(37,19)"/>
<path d="M0 0 C0.33 0.99 0.66 1.98 1 3 C-3.625 7 -3.625 7 -7 7 C-6.42655063 4.13275314 -6.1385485 3.1385485 -4 1 C-1.875 0.375 -1.875 0.375 0 0 Z " fill="#91455C" transform="translate(8,30)"/>
<path d="M0 0 C0.99 0 1.98 0 3 0 C3 1.32 3 2.64 3 4 C3.66 4.33 4.32 4.66 5 5 C4.67 5.99 4.34 6.98 4 8 C2.68 8.33 1.36 8.66 0 9 C0 6.03 0 3.06 0 0 Z " fill="#292249" transform="translate(2,11)"/>
<path d="M0 0 C0.66 0 1.32 0 2 0 C2 2.31 2 4.62 2 7 C0.68 7 -0.64 7 -2 7 C-1.125 1.125 -1.125 1.125 0 0 Z " fill="#143175" transform="translate(18,29)"/>
<path d="M0 0 C1.32 0 2.64 0 4 0 C4 2.64 4 5.28 4 8 C1 6 1 6 0.3125 2.875 C0.209375 1.92625 0.10625 0.9775 0 0 Z " fill="#143174" transform="translate(16,10)"/>
<path d="M0 0 C4.62 0 9.24 0 14 0 C10 2.66666667 10 2.66666667 7 3 C4.645752 2.411438 2.30657014 1.75407101 0 1 C0 0.67 0 0.34 0 0 Z " fill="#DAD9E1" transform="translate(29,28)"/>
<path d="M0 0 C1.485 0.99 1.485 0.99 3 2 C3.1875 5.125 3.1875 5.125 3 8 C2.01 8 1.02 8 0 8 C0 5.36 0 2.72 0 0 Z " fill="#0E2966" transform="translate(28,30)"/>
<path d="M0 0 C0.99 0 1.98 0 3 0 C3 1.98 3 3.96 3 6 C2.01 6.33 1.02 6.66 0 7 C0 4.69 0 2.38 0 0 Z " fill="#0E2965" transform="translate(28,12)"/>
<path d="M0 0 C2.31 0 4.62 0 7 0 C6 2 6 2 2.9375 3.125 C1.4834375 3.558125 1.4834375 3.558125 0 4 C0 2.68 0 1.36 0 0 Z " fill="#CC4863" transform="translate(12,27)"/>
<path d="M0 0 C0.99 0 1.98 0 3 0 C3 1.65 3 3.3 3 5 C1.68 5 0.36 5 -1 5 C-0.67 3.35 -0.34 1.7 0 0 Z " fill="#721027" transform="translate(43,22)"/>
<path d="M0 0 C0.66 0 1.32 0 2 0 C1.625 2.4375 1.625 2.4375 1 5 C0.01 5.495 0.01 5.495 -1 6 C-1.66 5.34 -2.32 4.68 -3 4 C-1.625 2 -1.625 2 0 0 Z " fill="#792A41" transform="translate(44,11)"/>
<path d="M0 0 C0 1.65 0 3.3 0 5 C-1.65 4.67 -3.3 4.34 -5 4 C-4.67 3.01 -4.34 2.02 -4 1 C-1 0 -1 0 0 0 Z " fill="#041948" transform="translate(46,28)"/>
<path d="M0 0 C1.65 0 3.3 0 5 0 C4 3 4 3 1.9375 4.1875 C1.298125 4.455625 0.65875 4.72375 0 5 C0 3.35 0 1.7 0 0 Z " fill="#0B204E" transform="translate(2,28)"/>
<path d="M0 0 C0.66 0.33 1.32 0.66 2 1 C2 4 2 4 0 7 C-0.66 6.67 -1.32 6.34 -2 6 C-1.67 5.01 -1.34 4.02 -1 3 C-1.66 2.67 -2.32 2.34 -3 2 C-2.01 1.34 -1.02 0.68 0 0 Z " fill="#B67085" transform="translate(41,12)"/>
</svg>
