<?xml version="1.0" encoding="UTF-8"?>
<svg version="1.1" xmlns="http://www.w3.org/2000/svg" width="48" height="48">
<path d="M0 0 C1.24040039 -0.00193359 1.24040039 -0.00193359 2.50585938 -0.00390625 C3.37662109 -0.00003906 4.24738281 0.00382813 5.14453125 0.0078125 C6.42166992 0.00201172 6.42166992 0.00201172 7.72460938 -0.00390625 C12.27594727 0.00313372 16.46355927 0.38291639 20.95703125 1.1328125 C24.08324012 1.25240788 27.20414409 1.22773876 30.33203125 1.1953125 C31.57919922 1.18854492 31.57919922 1.18854492 32.8515625 1.18164062 C34.88675022 1.16994414 36.92190048 1.15201185 38.95703125 1.1328125 C38.98589662 5.44529859 39.0037838 9.75776012 39.01953125 14.0703125 C39.02791016 15.30201172 39.03628906 16.53371094 39.04492188 17.80273438 C39.04814453 18.97255859 39.05136719 20.14238281 39.0546875 21.34765625 C39.05992432 22.43167725 39.06516113 23.51569824 39.07055664 24.63256836 C38.95703125 27.1328125 38.95703125 27.1328125 37.95703125 28.1328125 C35.05152525 28.23371873 32.17486342 28.27146324 29.26953125 28.2578125 C28.06393555 28.26361328 28.06393555 28.26361328 26.83398438 28.26953125 C23.47137234 28.26403229 20.31339054 28.19337949 16.9921875 27.62890625 C12.68291736 26.92455965 8.43968155 27.02765478 4.08203125 27.0703125 C3.20289063 27.07482422 2.32375 27.07933594 1.41796875 27.08398438 C-0.73570678 27.09568913 -2.88934692 27.11362181 -5.04296875 27.1328125 C-5.07183412 22.82032641 -5.0897213 18.50786488 -5.10546875 14.1953125 C-5.11384766 12.96361328 -5.12222656 11.73191406 -5.13085938 10.46289062 C-5.13408203 9.29306641 -5.13730469 8.12324219 -5.140625 6.91796875 C-5.14586182 5.83394775 -5.15109863 4.74992676 -5.15649414 3.63305664 C-4.97253513 -0.41839333 -3.64632106 0.00546499 0 0 Z " fill="#E63B48" transform="translate(7.04296875,9.8671875)"/>
<path d="M0 0 C3.61328125 0.03255208 7.2265625 0.06510417 10.83984375 0.09765625 C10.83984375 8.67765625 10.83984375 17.25765625 10.83984375 26.09765625 C5.88984375 26.42765625 0.93984375 26.75765625 -4.16015625 27.09765625 C-4.18697924 22.78511542 -4.20690869 18.47273918 -4.22265625 14.16015625 C-4.23103516 12.92845703 -4.23941406 11.69675781 -4.24804688 10.42773438 C-4.25126953 9.25791016 -4.25449219 8.08808594 -4.2578125 6.8828125 C-4.26304932 5.7987915 -4.26828613 4.71477051 -4.27368164 3.59790039 C-4.10381009 -0.14329213 -3.82546917 0.11821598 0 0 Z " fill="#2E4AA2" transform="translate(6.16015625,9.90234375)"/>
<path d="M0 0 C11 1 11 1 14 2 C14 10.58 14 19.16 14 28 C4 27 4 27 0 26 C0 17.42 0 8.84 0 0 Z " fill="#BDBDBE" transform="translate(17,10)"/>
<path d="M0 0 C1.32 0 2.64 0 4 0 C6.26598448 3.39897673 6.23742654 4.56319173 6.1953125 8.54296875 C6.18886719 9.61611328 6.18242187 10.68925781 6.17578125 11.79492188 C6.15902344 12.91447266 6.14226563 14.03402344 6.125 15.1875 C6.11597656 16.31865234 6.10695313 17.44980469 6.09765625 18.61523438 C6.07406862 21.41036828 6.041153 24.20507845 6 27 C4.02 26.67 2.04 26.34 0 26 C0 17.42 0 8.84 0 0 Z " fill="#E9E9E9" transform="translate(17,10)"/>
<path d="M0 0 C1.65 0 3.3 0 5 0 C5 7.92 5 15.84 5 24 C3.35 24.66 1.7 25.32 0 26 C0 17.42 0 8.84 0 0 Z " fill="#0C2474" transform="translate(2,11)"/>
<path d="M0 0 C0 8.58 0 17.16 0 26 C-1.65 26.33 -3.3 26.66 -5 27 C-4.67 18.42 -4.34 9.84 -4 1 C-2 0 -2 0 0 0 Z " fill="#CD242F" transform="translate(46,11)"/>
<path d="M0 0 C3 3 3 3 3.34057617 5.54370117 C3.32486572 6.53345947 3.30915527 7.52321777 3.29296875 8.54296875 C3.28330078 9.61611328 3.27363281 10.68925781 3.26367188 11.79492188 C3.23853516 12.91447266 3.21339844 14.03402344 3.1875 15.1875 C3.16719727 16.88422852 3.16719727 16.88422852 3.14648438 18.61523438 C3.11109958 21.41063317 3.06172948 24.20507892 3 27 C2.34 27 1.68 27 1 27 C0.67 18.09 0.34 9.18 0 0 Z " fill="#D8D9DA" transform="translate(20,10)"/>
<path d="M0 0 C0.66 0 1.32 0 2 0 C2.03758423 0.96824707 2.03758423 0.96824707 2.07592773 1.95605469 C2.19214433 4.88755894 2.31475442 7.81876217 2.4375 10.75 C2.47681641 11.76578125 2.51613281 12.7815625 2.55664062 13.828125 C2.59853516 14.8078125 2.64042969 15.7875 2.68359375 16.796875 C2.72025146 17.69760742 2.75690918 18.59833984 2.79467773 19.52636719 C2.98306407 21.79596339 3.37366501 23.81562887 4 26 C2.68 26 1.36 26 0 26 C0 17.42 0 8.84 0 0 Z " fill="#CF4A57" transform="translate(31,12)"/>
<path d="M0 0 C2.31 0.33 4.62 0.66 7 1 C6.01 1.66 5.02 2.32 4 3 C3.49039309 5.51385259 3.49039309 5.51385259 3.48828125 8.4453125 C3.43510742 10.05986328 3.43510742 10.05986328 3.38085938 11.70703125 C3.35830078 12.83496094 3.33574219 13.96289062 3.3125 15.125 C3.26125977 16.82849609 3.26125977 16.82849609 3.20898438 18.56640625 C3.12630498 21.37750579 3.05722063 24.18828553 3 27 C2.67 27 2.34 27 2 27 C1.96241577 25.9330188 1.96241577 25.9330188 1.92407227 24.84448242 C1.80811561 21.62530483 1.68538755 18.40642015 1.5625 15.1875 C1.52318359 14.06794922 1.48386719 12.94839844 1.44335938 11.79492188 C1.40146484 10.72177734 1.35957031 9.64863281 1.31640625 8.54296875 C1.27974854 7.55321045 1.24309082 6.56345215 1.20532227 5.54370117 C1.09209669 2.8781649 1.09209669 2.8781649 0 0 Z " fill="#C9CACB" transform="translate(21,10)"/>
</svg>
